<!--?xml version="1.0" encoding="utf-8"?-->
<!-- Generator: Adobe Illustrator 18.1.1, SVG Export Plug-In . SVG Version: 6.00 Build 0)  -->

<svg version="1.1" id="_x32_" xmlns="http://www.w3.org/2000/svg" xmlns:xlink="http://www.w3.org/1999/xlink" x="0px" y="0px" viewBox="0 0 512 512" style="width: 512px; height: 512px; opacity: 1;" xml:space="preserve">
<style type="text/css">
	.st0{fill:#4B4B4B;}
</style>
<g>
	<path class="st0" d="M256,0C114.84,0,0,114.843,0,256.004C0,397.164,114.84,512,256,512c141.161,0,256-114.836,256-255.996
		C512,114.843,397.161,0,256,0z M256,466.053c-116,0-210.049-94.052-210.049-210.049C45.951,140,140,45.954,256,45.954
		S466.049,140,466.049,256.004C466.049,372,372,466.053,256,466.053z" style="fill: rgb(255, 255, 255);"></path>
	<path class="st0" d="M258.122,187.158c-0.438-0.592-1.243-0.934-2.116-0.934c-0.872,0-1.706,0.342-2.13,0.934l-63.116,82.528
		c-0.449,0.584-0.474,1.339-0.025,1.959c0.438,0.591,1.272,0.975,2.155,0.975h63.116h63.088c0.912,0,1.731-0.384,2.154-0.975
		c0.463-0.62,0.438-1.375-0.01-1.959L258.122,187.158z" style="fill: rgb(255, 255, 255);"></path>
	<rect x="189.465" y="292.962" class="st0" width="131.278" height="32.82" style="fill: rgb(255, 255, 255);"></rect>
</g>
</svg>
