<!--?xml version="1.0" encoding="utf-8"?-->
<!-- Generator: Adobe Illustrator 18.1.1, SVG Export Plug-In . SVG Version: 6.00 Build 0)  -->

<svg version="1.1" id="_x32_" xmlns="http://www.w3.org/2000/svg" xmlns:xlink="http://www.w3.org/1999/xlink" x="0px" y="0px" viewBox="0 0 512 512" style="width: 512px; height: 512px; opacity: 1;" xml:space="preserve">
<style type="text/css">
	.st0{fill:#4B4B4B;}
</style>
<g>
	<path class="st0" d="M508.882,250.515L235.601,87.36c-1.952-1.142-4.438-1.215-6.462-0.049c-1.97,1.116-3.204,3.289-3.204,5.572
		v123.61L9.646,87.36c-1.95-1.142-4.436-1.215-6.461-0.049C1.252,88.428,0,90.601,0,92.883v163.143v163.056
		c0,2.357,1.252,4.492,3.185,5.586c2.025,1.19,4.511,1.116,6.461-0.025l216.289-129.132v123.572c0,2.357,1.234,4.492,3.204,5.586
		c2.025,1.19,4.511,1.116,6.462-0.025l273.281-163.155c1.964-1.142,3.118-3.204,3.118-5.462
		C512,253.755,510.846,251.62,508.882,250.515z" style="fill: rgb(255, 255, 255);"></path>
</g>
</svg>
