<!--?xml version="1.0" encoding="utf-8"?-->
<!-- Generator: Adobe Illustrator 18.1.1, SVG Export Plug-In . SVG Version: 6.00 Build 0)  -->

<svg version="1.1" id="_x32_" xmlns="http://www.w3.org/2000/svg" xmlns:xlink="http://www.w3.org/1999/xlink" x="0px" y="0px" viewBox="0 0 512 512" style="width: 512px; height: 512px; opacity: 1;" xml:space="preserve">
<style type="text/css">
	.st0{fill:#4B4B4B;}
</style>
<g>
	<path class="st0" d="M256,0C114.625,0,0,114.625,0,256s114.625,256,256,256s256-114.625,256-256S397.375,0,256,0z M344.203,329.578
		h-42.656v-71.352c-0.125,0.11-0.203,0.266-0.359,0.359l-128.844,76.922c-0.922,0.546-2.094,0.578-3.047,0.015
		c-0.922-0.515-1.515-1.515-1.515-2.625v-76.89v-76.922c0-1.078,0.594-2.094,1.515-2.625c0.954-0.547,2.126-0.515,3.047,0.031
		l128.844,76.922c0.156,0.086,0.234,0.25,0.359,0.36v-73.531h42.656V329.578z" style="fill: rgb(255, 255, 255);"></path>
</g>
</svg>
