<!--?xml version="1.0" encoding="utf-8"?-->
<!-- Generator: Adobe Illustrator 18.1.1, SVG Export Plug-In . SVG Version: 6.00 Build 0)  -->

<svg version="1.1" id="_x32_" xmlns="http://www.w3.org/2000/svg" xmlns:xlink="http://www.w3.org/1999/xlink" x="0px" y="0px" viewBox="0 0 512 512" style="width: 512px; height: 512px; opacity: 1;" xml:space="preserve">
<style type="text/css">
	.st0{fill:#4B4B4B;}
</style>
<g>
	<path class="st0" d="M256,0C114.617,0,0,114.61,0,256s114.617,256,256,256c141.382,0,256-114.61,256-256S397.382,0,256,0z
		 M286.266,330.89l-61.742,32.633c-1.711,0.914-3.828,0.633-5.258-0.679c-1.422-1.321-1.883-3.398-1.118-5.188l5.774-13.734h-25.07
		c-18.156,0.016-35.156-5.554-49.156-15.031c-14.039-9.469-25.172-22.867-31.844-38.656c-4.469-10.547-6.922-22.141-6.922-34.234
		c0-18.141,5.546-35.156,15.015-49.172c9.485-14.031,22.883-25.141,38.672-31.843c10.531-4.462,22.149-6.906,34.234-6.906v34.195
		c-11.179,0.015-21.422,3.351-30.023,9.172c-8.594,5.789-15.43,14.023-19.477,23.633c-2.734,6.422-4.218,13.445-4.218,20.922
		c0.015,11.187,3.382,21.438,9.156,30.023c5.805,8.586,14.039,15.422,23.656,19.493c6.422,2.703,13.438,4.203,20.906,4.218h25.07
		l-5.774-13.766c-0.766-1.782-0.305-3.859,1.141-5.18c1.422-1.304,3.523-1.594,5.234-0.671l61.742,32.617
		c1.507,0.789,2.445,2.375,2.445,4.078C288.71,328.523,287.773,330.11,286.266,330.89z M378,388.414
		c-42.711,0-77.336-34.626-77.336-77.336c0-37.438,26.602-68.649,61.93-75.797c-1.367-3.25-2.93-6.406-4.898-9.313
		c-5.774-8.594-14.016-15.422-23.641-19.484c-6.422-2.711-13.438-4.211-20.922-4.211h-25.07l5.789,13.75
		c0.766,1.79,0.297,3.867-1.141,5.188c-1.422,1.312-3.538,1.578-5.266,0.656L225.75,189.25c-1.523-0.805-2.461-2.375-2.461-4.078
		c-0.023-1.703,0.938-3.282,2.438-4.062l61.718-32.641c1.734-0.906,3.844-0.625,5.266,0.687c1.446,1.305,1.906,3.367,1.141,5.188
		l-5.774,13.734h25.055c18.156,0,35.172,5.539,49.172,15.031c14.023,9.469,25.14,22.859,31.851,38.664
		c2.008,4.758,3.547,9.758,4.703,14.898c32.562,9.11,56.477,38.938,56.477,74.406C455.336,353.789,420.71,388.414,378,388.414z" style="fill: rgb(255, 255, 255);"></path>
	<polygon class="st0" points="350,296.11 359.046,310.438 370.726,305.531 370.726,356.406 393.336,356.406 393.336,273.5 
		376.374,273.5 	" style="fill: rgb(255, 255, 255);"></polygon>
</g>
</svg>
