<!--?xml version="1.0" encoding="utf-8"?-->
<!-- Generator: Adobe Illustrator 18.1.1, SVG Export Plug-In . SVG Version: 6.00 Build 0)  -->

<svg version="1.1" id="_x32_" xmlns="http://www.w3.org/2000/svg" xmlns:xlink="http://www.w3.org/1999/xlink" x="0px" y="0px" viewBox="0 0 512 512" style="width: 512px; height: 512px; opacity: 1;" xml:space="preserve">
<style type="text/css">
	.st0{fill:#4B4B4B;}
</style>
<g>
	<path class="st0" d="M280.837,310.758l-50.663-26.766c-1.403-0.755-3.127-0.52-4.295,0.556c-1.19,1.082-1.566,2.785-0.933,4.245
		l4.736,11.296h-20.57c-6.132-0.014-11.888-1.239-17.158-3.462c-7.892-3.34-14.644-8.946-19.41-15.99
		c-4.736-7.044-7.5-15.456-7.514-24.637c0-6.132,1.218-11.894,3.462-17.165c3.318-7.885,8.932-14.644,15.983-19.395
		c7.058-4.772,15.463-7.507,24.637-7.521v-28.064c-9.922,0-19.452,2.009-28.092,5.67c-12.956,5.499-23.954,14.616-31.731,26.126
		c-7.77,11.502-12.322,25.463-12.322,40.349c0,9.922,2.016,19.437,5.676,28.092c5.478,12.956,14.608,23.946,26.133,31.717
		c11.489,7.778,25.435,12.344,40.335,12.336h20.57l-4.736,11.268c-0.634,1.468-0.257,3.17,0.912,4.252
		c1.175,1.083,2.913,1.311,4.316,0.563l50.663-26.781c1.232-0.641,2.001-1.937,2.001-3.34S282.068,311.407,280.837,310.758z" style="fill: rgb(255, 255, 255);"></path>
	<path class="st0" d="M373.216,240.138c-0.947-4.216-2.208-8.319-3.853-12.222c-5.506-12.97-14.63-23.954-26.14-31.724
		c-11.481-7.785-25.449-12.336-40.342-12.336h-20.563l4.744-11.268c0.627-1.489,0.25-3.184-0.94-4.252
		c-1.168-1.083-2.899-1.311-4.316-0.57l-50.642,26.788c-1.232,0.641-2.022,1.93-2.001,3.333c0,1.396,0.77,2.685,2.016,3.34
		l50.627,26.767c1.41,0.755,3.148,0.541,4.316-0.542c1.182-1.082,1.567-2.785,0.94-4.252l-4.751-11.282h20.57
		c6.14,0,11.895,1.232,17.166,3.454c7.899,3.333,14.658,8.932,19.394,15.983c1.617,2.386,2.899,4.978,4.025,7.643
		c-28.989,5.868-50.82,31.474-50.82,62.194c0,35.043,28.412,63.455,63.455,63.455c35.05,0,63.462-28.412,63.462-63.455
		C419.563,272.09,399.941,247.617,373.216,240.138z M368.686,338.387h-18.547v-41.745l-9.587,4.024l-7.422-11.752l21.639-18.554
		h13.917V338.387z" style="fill: rgb(255, 255, 255);"></path>
	<path class="st0" d="M256,0C114.838,0,0,114.837,0,256s114.838,256,256,256c141.163,0,256-114.837,256-256S397.163,0,256,0z
		 M256,466.052c-116.006,0-210.052-94.039-210.052-210.052c0-116.012,94.046-210.052,210.052-210.052
		c116.006,0,210.052,94.04,210.052,210.052C466.052,372.013,372.006,466.052,256,466.052z" style="fill: rgb(255, 255, 255);"></path>
</g>
</svg>
