<!--?xml version="1.0" encoding="utf-8"?-->
<!-- Generator: Adobe Illustrator 18.1.1, SVG Export Plug-In . SVG Version: 6.00 Build 0)  -->

<svg version="1.1" id="_x32_" xmlns="http://www.w3.org/2000/svg" xmlns:xlink="http://www.w3.org/1999/xlink" x="0px" y="0px" viewBox="0 0 512 512" style="width: 512px; height: 512px; opacity: 1;" xml:space="preserve">
<style type="text/css">
	.st0{fill:#4B4B4B;}
</style>
<g>
	<path class="st0" d="M508.822,87.328c-2.026-1.19-4.505-1.117-6.469,0.025L286.058,216.476V92.912c0-2.356-1.226-4.492-3.191-5.584
		c-2.038-1.19-4.516-1.117-6.468,0.025L3.117,250.512C1.154,251.653,0,253.715,0,255.974c0,2.27,1.154,4.406,3.117,5.511
		L276.4,424.644c1.952,1.142,4.43,1.216,6.468,0.049c1.964-1.117,3.191-3.289,3.191-5.572v-123.6l216.294,129.122
		c1.964,1.142,4.443,1.216,6.469,0.049c1.927-1.117,3.178-3.289,3.178-5.572V255.974V92.912
		C512,90.556,510.748,88.42,508.822,87.328z" style="fill: rgb(255, 255, 255);"></path>
</g>
</svg>
